<svg width="15" height="15" viewBox="0 0 15 15" fill="none" xmlns="http://www.w3.org/2000/svg">
<path d="M7.5 0.625C8.99184 0.625 10.4226 1.21763 11.4775 2.27252C12.5324 3.32742 13.125 4.75816 13.125 6.25C13.125 8.57875 11.35 11.0187 7.875 13.625C7.76682 13.7061 7.63523 13.75 7.5 13.75C7.36477 13.75 7.23318 13.7061 7.125 13.625C3.65 11.0187 1.875 8.57875 1.875 6.25C1.875 4.75816 2.46763 3.32742 3.52252 2.27252C4.57742 1.21763 6.00816 0.625 7.5 0.625ZM7.5 4.375C7.00272 4.375 6.52581 4.57254 6.17417 4.92417C5.82254 5.27581 5.625 5.75272 5.625 6.25C5.625 6.74728 5.82254 7.22419 6.17417 7.57583C6.52581 7.92746 7.00272 8.125 7.5 8.125C7.99728 8.125 8.47419 7.92746 8.82583 7.57583C9.17746 7.22419 9.375 6.74728 9.375 6.25C9.375 5.75272 9.17746 5.27581 8.82583 4.92417C8.47419 4.57254 7.99728 4.375 7.5 4.375Z" fill="black"/>
</svg>
